<svg width="72" height="72" viewBox="0 0 72 72" fill="none" xmlns="http://www.w3.org/2000/svg">
<g clip-path="url(#clip0_402_473)">
<path d="M0.875 35.9972C0.875 51.113 10.4155 63.9993 23.8028 68.9666L26.86 35.997L23.8028 3.02762C10.4155 7.99509 0.875 20.8812 0.875 35.9972Z" fill="#6DA544"/>
<path d="M71.1875 35.9972C71.1875 16.581 55.4473 0.840912 36.0312 0.840912C31.7309 0.840912 27.6114 1.61449 23.8027 3.0276V68.9667C27.6114 70.38 31.7309 71.1534 36.0312 71.1534C55.4473 71.1534 71.1875 55.4133 71.1875 35.9972Z" fill="#D80027"/>
<path d="M23.803 48.2253C30.5565 48.2253 36.0312 42.7506 36.0312 35.9971C36.0312 29.2437 30.5565 23.7689 23.803 23.7689C17.0496 23.7689 11.5748 29.2437 11.5748 35.9971C11.5748 42.7506 17.0496 48.2253 23.803 48.2253Z" fill="#FFDA44"/>
<path d="M16.9247 29.883V37.5256C16.9247 41.3244 20.0042 44.404 23.8031 44.404C27.602 44.404 30.6815 41.3246 30.6815 37.5256V29.883H16.9247Z" fill="#D80027"/>
<path d="M23.8031 39.8185C22.5388 39.8185 21.5103 38.7899 21.5103 37.5256V34.4687H26.0958V37.5258C26.0958 38.7899 25.0672 39.8185 23.8031 39.8185Z" fill="#F0F0F0"/>
</g>
<defs>
<clipPath id="clip0_402_473">
<rect width="70.3125" height="70.3125" fill="white" transform="translate(0.875 0.840912)"/>
</clipPath>
</defs>
</svg>
